<?xml version="1.0" standalone="no"?>
<!DOCTYPE svg PUBLIC "-//W3C//DTD SVG 20010904//EN"
 "http://www.w3.org/TR/2001/REC-SVG-20010904/DTD/svg10.dtd">
<svg version="1.0" xmlns="http://www.w3.org/2000/svg"
 width="560.000000pt" height="560.000000pt" viewBox="0 0 560.000000 560.000000"
 preserveAspectRatio="xMidYMid meet">
<metadata>
Created by potrace 1.11, written by Peter Selinger 2001-2013
</metadata>
<g transform="translate(0.000000,560.000000) scale(0.100000,-0.100000)"
fill="#000000" stroke="none">
<path d="M4149 5366 c-3 -3 -18 -7 -34 -10 -17 -3 -75 -17 -130 -31 -55 -15
-109 -28 -120 -30 -11 -3 -173 -43 -360 -91 -187 -47 -349 -87 -360 -90 -11
-2 -281 -69 -600 -149 -319 -81 -589 -148 -600 -150 -11 -3 -83 -21 -160 -40
-77 -20 -149 -38 -160 -40 -11 -3 -101 -25 -200 -51 -99 -25 -191 -48 -205
-50 -13 -3 -26 -7 -28 -9 -2 -2 -4 -841 -4 -1865 l0 -1862 183 -366 c101 -202
184 -369 186 -371 1 -2 168 38 370 88 203 51 376 94 385 96 10 2 136 34 280
70 145 37 270 68 278 70 8 2 134 33 280 70 277 69 289 72 318 79 9 2 190 48
402 101 212 53 393 98 403 100 10 2 27 7 37 10 10 3 28 8 39 10 12 3 30 7 41
10 11 3 28 7 38 9 9 2 38 9 63 16 l46 12 0 1861 0 1862 -36 75 c-20 41 -40 78
-45 82 -5 3 -26 0 -48 -8 -21 -7 -38 -11 -38 -9 0 3 -11 0 -25 -5 -14 -5 -36
-12 -48 -14 -28 -5 -1141 -280 -1217 -301 -51 -14 -523 -130 -566 -140 -10 -2
-61 -14 -111 -27 -86 -21 -93 -25 -93 -48 -1 -14 -1 -389 -2 -833 0 -444 -4
-807 -8 -805 -5 2 -47 40 -94 86 -48 45 -90 82 -94 81 -4 0 -45 -78 -92 -174
-46 -95 -87 -172 -89 -169 -2 2 -4 392 -3 865 1 474 -1 865 -3 869 -3 4 -68
-8 -145 -27 -77 -20 -142 -34 -144 -32 -14 15 -176 352 -171 357 5 5 384 105
440 116 11 2 40 9 65 16 25 7 52 14 60 15 8 2 40 11 72 19 31 8 67 17 80 20
12 2 59 14 103 26 44 12 91 23 105 26 14 3 34 8 45 11 11 4 25 8 30 9 6 1 48
12 95 24 47 12 92 23 100 25 8 2 96 24 195 50 173 45 194 50 233 59 85 19 977
249 997 256 14 5 25 8 25 5 0 -2 15 1 33 6 17 6 41 12 52 15 11 2 32 7 46 11
l27 8 -51 103 c-46 95 -56 109 -68 98z m-173 -2191 c49 -20 80 -49 107 -100
33 -61 30 -203 -8 -305 -35 -98 -119 -264 -191 -381 -102 -167 -100 -163 -83
-157 19 8 355 98 363 98 3 0 6 -53 6 -119 l0 -119 -82 -21 c-46 -12 -90 -23
-98 -25 -19 -5 -234 -62 -428 -115 -169 -45 -172 -46 -172 -30 0 6 47 87 105
179 58 93 105 173 105 179 0 5 4 11 8 13 15 6 168 291 205 383 41 99 44 203 9
252 -62 87 -188 54 -334 -87 -43 -41 -79 -75 -79 -75 -1 0 -2 51 -3 113 l-2
114 39 35 c169 152 398 225 533 168z m-634 -870 c-22 -55 -72 -187 -113 -293
-69 -180 -76 -193 -103 -200 -28 -7 -31 -5 -56 43 -90 170 -133 245 -141 245
-5 0 -9 -4 -9 -10 0 -13 -149 -363 -158 -371 -4 -4 -17 -10 -30 -14 -21 -6
-30 9 -136 227 -63 128 -111 237 -107 241 8 8 123 38 128 33 1 -1 30 -60 64
-131 34 -72 64 -123 66 -115 3 8 8 24 13 35 5 11 32 76 61 145 28 69 56 130
63 136 9 10 98 36 102 31 4 -5 109 -205 119 -224 5 -13 13 -23 16 -23 3 0 32
69 64 153 31 83 61 156 67 162 11 12 122 43 126 35 1 -3 -15 -50 -36 -105z
m-912 -232 l0 -58 -87 0 c-105 0 -158 -14 -215 -58 -106 -81 -125 -242 -32
-277 42 -16 112 -11 165 11 45 20 49 24 49 55 0 36 -10 41 -53 25 -24 -9 -24
-8 -24 39 l0 49 79 21 c44 12 92 22 106 23 l26 2 -1 -103 c-1 -115 -2 -119
-78 -167 -103 -66 -251 -98 -330 -72 -90 30 -135 102 -130 206 4 87 32 148
103 220 56 56 166 121 208 121 11 0 25 4 31 8 7 4 51 9 98 11 l85 2 0 -58z
m1756 -287 c2 -55 -4 -62 -79 -80 -40 -9 -96 -24 -124 -32 l-53 -15 0 -58 0
-58 118 32 117 32 3 -44 c2 -25 2 -47 0 -48 -4 -4 -181 -52 -218 -59 -11 -2
-16 -20 -18 -69 -2 -37 -2 -67 0 -67 2 0 60 15 131 34 l127 34 0 -48 0 -47
-172 -47 c-95 -26 -183 -49 -195 -52 l-23 -4 0 264 0 264 118 32 c64 17 144
40 177 50 77 23 89 22 91 -14z m-498 -361 l0 -265 -57 -16 c-31 -8 -61 -17
-66 -18 -7 -3 -10 54 -10 160 0 90 -1 164 -2 164 -1 0 -34 -45 -73 -100 -39
-55 -76 -100 -83 -100 -7 0 -41 27 -77 59 -36 33 -67 57 -70 54 -3 -2 -5 -75
-5 -161 0 -94 -4 -159 -10 -161 -21 -9 -99 -31 -109 -31 -12 0 -17 513 -5 525
6 6 31 12 84 21 25 4 38 -2 75 -37 25 -22 62 -55 84 -72 l39 -31 16 21 c9 12
47 67 86 121 66 94 73 101 120 115 27 8 53 15 57 16 3 0 6 -118 6 -264z m-773
6 c149 -67 152 -270 7 -420 -131 -135 -340 -171 -437 -76 -42 40 -57 78 -58
143 -3 98 37 181 127 266 41 38 138 90 186 99 60 11 137 6 175 -12z m-514
-103 c0 -7 1 -27 2 -45 l2 -32 -97 -27 -98 -26 0 -219 0 -218 -37 -10 c-21 -5
-50 -13 -65 -17 l-28 -6 0 216 c0 119 -3 216 -7 216 -5 0 -48 -11 -96 -24 -48
-12 -89 -20 -90 -17 -2 3 -3 24 -2 46 l1 40 84 23 c120 32 264 71 340 92 80
22 90 23 91 8z"/>
<path d="M2726 1329 c-40 -10 -89 -40 -119 -74 -43 -49 -60 -140 -37 -199 30
-79 165 -81 252 -3 49 43 71 92 72 153 1 63 -17 98 -59 119 -36 17 -52 17
-109 4z"/>
</g>
</svg>
